solid OpenSCAD_Model
  facet normal 1 0 0
    outer loop
      vertex 0 13 4
      vertex 0 12.8 2.2
      vertex 0 13 0
    endloop
  endfacet
  facet normal 1 -0 0
    outer loop
      vertex 0 10 4
      vertex 0 12.8 2.2
      vertex 0 13 4
    endloop
  endfacet
  facet normal 1 0 0
    outer loop
      vertex 0 12.8 2.2
      vertex 0 10 4
      vertex 0 10 2.2
    endloop
  endfacet
  facet normal 1 0 0
    outer loop
      vertex 0 13 0
      vertex 0 12.8 2.2
      vertex 0 12.8 0
    endloop
  endfacet
  facet normal -1 0 0
    outer loop
      vertex 0 10 0
      vertex 0 9 2.2
      vertex 0 10 2.2
    endloop
  endfacet
  facet normal -1 0 0
    outer loop
      vertex 0 9 2.2
      vertex 0 6 2.2
      vertex 0 9 4.7
    endloop
  endfacet
  facet normal -1 0 0
    outer loop
      vertex 0 10 0
      vertex 0 6 2.2
      vertex 0 9 2.2
    endloop
  endfacet
  facet normal -1 0 0
    outer loop
      vertex 0 0.799999 0
      vertex 0 6 2.2
      vertex 0 10 0
    endloop
  endfacet
  facet normal -1 -0 0
    outer loop
      vertex 0 6 2.2
      vertex 0 0.799999 0
      vertex 0 0.799999 2.2
    endloop
  endfacet
  facet normal -1 -0 0
    outer loop
      vertex 0 9 4.7
      vertex 0 6 2.2
      vertex 0 6 4.7
    endloop
  endfacet
  facet normal 0 0 1
    outer loop
      vertex 0.799999 6 2.2
      vertex 0 6 2.2
      vertex 0.799999 0.799999 2.2
    endloop
  endfacet
  facet normal -0 0 1
    outer loop
      vertex 0.799999 0.799999 2.2
      vertex 3.25 0 2.2
      vertex 3.25 0.799999 2.2
    endloop
  endfacet
  facet normal 0 0 1
    outer loop
      vertex 0 0.799999 2.2
      vertex 0.799999 0.799999 2.2
      vertex 0 6 2.2
    endloop
  endfacet
  facet normal -0 0 1
    outer loop
      vertex 0 0.799999 2.2
      vertex 3.25 0 2.2
      vertex 0.799999 0.799999 2.2
    endloop
  endfacet
  facet normal 0 0 1
    outer loop
      vertex -2.8 0 2.2
      vertex 0 0.799999 2.2
      vertex -2.8 0.799999 2.2
    endloop
  endfacet
  facet normal 0 0 1
    outer loop
      vertex 0 0.799999 2.2
      vertex -2.8 0 2.2
      vertex 3.25 0 2.2
    endloop
  endfacet
  facet normal -0 0 1
    outer loop
      vertex 9.5 12.8 2.2
      vertex 10.3 9 2.2
      vertex 10.3 12.8 2.2
    endloop
  endfacet
  facet normal 0 0 1
    outer loop
      vertex 10.3 9 2.2
      vertex 9.5 12.8 2.2
      vertex 9.5 9 2.2
    endloop
  endfacet
  facet normal 0 0 1
    outer loop
      vertex 9.5 0.799999 2.2
      vertex 10.3 6 2.2
      vertex 9.5 6 2.2
    endloop
  endfacet
  facet normal 0 0 1
    outer loop
      vertex 10.3 6 2.2
      vertex 9.5 0.799999 2.2
      vertex 10.3 0 2.2
    endloop
  endfacet
  facet normal 0 0 1
    outer loop
      vertex 6.25 0 2.2
      vertex 9.5 0.799999 2.2
      vertex 6.25 0.799999 2.2
    endloop
  endfacet
  facet normal 0 0 1
    outer loop
      vertex 9.5 0.799999 2.2
      vertex 6.25 0 2.2
      vertex 10.3 0 2.2
    endloop
  endfacet
  facet normal 0 0 1
    outer loop
      vertex 0 10 2.2
      vertex 0.799999 12.8 2.2
      vertex 0 12.8 2.2
    endloop
  endfacet
  facet normal 0 0 1
    outer loop
      vertex 0.799999 12.8 2.2
      vertex 0 10 2.2
      vertex 0.799999 9 2.2
    endloop
  endfacet
  facet normal 0 0 1
    outer loop
      vertex 0.799999 9 2.2
      vertex 0 10 2.2
      vertex 0 9 2.2
    endloop
  endfacet
  facet normal 1 0 0
    outer loop
      vertex 10.3 9 4.7
      vertex 10.3 6 4.7
      vertex 10.3 9 2.2
    endloop
  endfacet
  facet normal 1 -0 0
    outer loop
      vertex 10.3 9 2.2
      vertex 10.3 12.8 0
      vertex 10.3 12.8 2.2
    endloop
  endfacet
  facet normal 1 0 0
    outer loop
      vertex 10.3 6 2.2
      vertex 10.3 9 2.2
      vertex 10.3 6 4.7
    endloop
  endfacet
  facet normal 1 -0 0
    outer loop
      vertex 10.3 6 2.2
      vertex 10.3 12.8 0
      vertex 10.3 9 2.2
    endloop
  endfacet
  facet normal 1 0 0
    outer loop
      vertex 10.3 0 0
      vertex 10.3 6 2.2
      vertex 10.3 0 2.2
    endloop
  endfacet
  facet normal 1 0 0
    outer loop
      vertex 10.3 6 2.2
      vertex 10.3 0 0
      vertex 10.3 12.8 0
    endloop
  endfacet
  facet normal 0 1 0
    outer loop
      vertex 10.3 12.8 2.2
      vertex 9.5 12.8 1.2
      vertex 9.5 12.8 2.2
    endloop
  endfacet
  facet normal 0 1 0
    outer loop
      vertex 9.5 12.8 1.2
      vertex 10.3 12.8 0
      vertex 0.799999 12.8 1.2
    endloop
  endfacet
  facet normal 0 1 -0
    outer loop
      vertex 10.3 12.8 0
      vertex 9.5 12.8 1.2
      vertex 10.3 12.8 2.2
    endloop
  endfacet
  facet normal 0 1 -0
    outer loop
      vertex 0.799999 12.8 1.2
      vertex 0 12.8 2.2
      vertex 0.799999 12.8 2.2
    endloop
  endfacet
  facet normal 0 1 0
    outer loop
      vertex 0.799999 12.8 1.2
      vertex 0 12.8 0
      vertex 0 12.8 2.2
    endloop
  endfacet
  facet normal 0 1 0
    outer loop
      vertex 0 12.8 0
      vertex 0.799999 12.8 1.2
      vertex 10.3 12.8 0
    endloop
  endfacet
  facet normal 0 0 -1
    outer loop
      vertex 0 10 0
      vertex 10.3 0 0
      vertex 0 0.799999 0
    endloop
  endfacet
  facet normal 0 0 -1
    outer loop
      vertex -5 0 0
      vertex 0 0.799999 0
      vertex 10.3 0 0
    endloop
  endfacet
  facet normal -0 0 -1
    outer loop
      vertex 0 0.799999 0
      vertex -5 0 0
      vertex -5 0.799999 0
    endloop
  endfacet
  facet normal 0 0 -1
    outer loop
      vertex 10.3 0 0
      vertex 0 10 0
      vertex 10.3 12.8 0
    endloop
  endfacet
  facet normal 0 0 -1
    outer loop
      vertex 0 10 0
      vertex 0 12.8 0
      vertex 10.3 12.8 0
    endloop
  endfacet
  facet normal 0 0 -1
    outer loop
      vertex -3 10 0
      vertex 0 12.8 0
      vertex 0 10 0
    endloop
  endfacet
  facet normal 0 0 -1
    outer loop
      vertex -3 13 0
      vertex 0 12.8 0
      vertex -3 10 0
    endloop
  endfacet
  facet normal 0 0 -1
    outer loop
      vertex 0 12.8 0
      vertex -3 13 0
      vertex 0 13 0
    endloop
  endfacet
  facet normal 0 -1 0
    outer loop
      vertex -5 0 7.2
      vertex -2.8 0 2.2
      vertex -2.8 0 7.2
    endloop
  endfacet
  facet normal 0 -1 0
    outer loop
      vertex -5 0 0
      vertex 3.25 0 2.2
      vertex -2.8 0 2.2
    endloop
  endfacet
  facet normal 0 -1 0
    outer loop
      vertex 10.3 0 0
      vertex 3.25 0 2.2
      vertex -5 0 0
    endloop
  endfacet
  facet normal 0 -1 0
    outer loop
      vertex -5 0 0
      vertex -2.8 0 2.2
      vertex -5 0 7.2
    endloop
  endfacet
  facet normal 0 -1 0
    outer loop
      vertex 3.25 0 2.2
      vertex 10.3 0 0
      vertex 6.25 0 2.2
    endloop
  endfacet
  facet normal 0 -1 0
    outer loop
      vertex 6.25 0 2.2
      vertex 10.3 0 0
      vertex 10.3 0 2.2
    endloop
  endfacet
  facet normal 0 -1 0
    outer loop
      vertex 3.25 0 2.2
      vertex 6.25 0 6
      vertex 3.25 0 6
    endloop
  endfacet
  facet normal 0 -1 -0
    outer loop
      vertex 6.25 0 6
      vertex 3.25 0 2.2
      vertex 6.25 0 2.2
    endloop
  endfacet
  facet normal 1 -0 0
    outer loop
      vertex 0.799999 9 2.2
      vertex 0.799999 12.8 1.2
      vertex 0.799999 12.8 2.2
    endloop
  endfacet
  facet normal 1 -0 0
    outer loop
      vertex 0.799999 6 2.2
      vertex 0.799999 12.8 1.2
      vertex 0.799999 9 2.2
    endloop
  endfacet
  facet normal 1 0 0
    outer loop
      vertex 0.799999 0.799999 1.2
      vertex 0.799999 6 2.2
      vertex 0.799999 0.799999 2.2
    endloop
  endfacet
  facet normal 1 0 0
    outer loop
      vertex 0.799999 6 2.2
      vertex 0.799999 0.799999 1.2
      vertex 0.799999 12.8 1.2
    endloop
  endfacet
  facet normal -1 0 0
    outer loop
      vertex 9.5 12.8 1.2
      vertex 9.5 9 2.2
      vertex 9.5 12.8 2.2
    endloop
  endfacet
  facet normal -1 0 0
    outer loop
      vertex 9.5 12.8 1.2
      vertex 9.5 6 2.2
      vertex 9.5 9 2.2
    endloop
  endfacet
  facet normal -1 0 0
    outer loop
      vertex 9.5 0.799999 1.2
      vertex 9.5 6 2.2
      vertex 9.5 12.8 1.2
    endloop
  endfacet
  facet normal -1 -0 0
    outer loop
      vertex 9.5 6 2.2
      vertex 9.5 0.799999 1.2
      vertex 9.5 0.799999 2.2
    endloop
  endfacet
  facet normal 0 0 1
    outer loop
      vertex 9.5 12.8 1.2
      vertex 6.25 0.799999 1.2
      vertex 9.5 0.799999 1.2
    endloop
  endfacet
  facet normal -0 0 1
    outer loop
      vertex 0.799999 12.8 1.2
      vertex 6.25 0.799999 1.2
      vertex 9.5 12.8 1.2
    endloop
  endfacet
  facet normal 0 0 1
    outer loop
      vertex 6.25 0.799999 1.2
      vertex 0.799999 12.8 1.2
      vertex 3.25 0.799999 1.2
    endloop
  endfacet
  facet normal 0 0 1
    outer loop
      vertex 3.25 0.799999 1.2
      vertex 0.799999 12.8 1.2
      vertex 0.799999 0.799999 1.2
    endloop
  endfacet
  facet normal 0 1 -0
    outer loop
      vertex 6.25 0.799999 2.2
      vertex 3.25 0.799999 6
      vertex 6.25 0.799999 6
    endloop
  endfacet
  facet normal 0 1 0
    outer loop
      vertex 6.25 0.799999 2.2
      vertex 3.25 0.799999 2.2
      vertex 3.25 0.799999 6
    endloop
  endfacet
  facet normal 0 1 -0
    outer loop
      vertex 6.25 0.799999 1.2
      vertex 3.25 0.799999 2.2
      vertex 6.25 0.799999 2.2
    endloop
  endfacet
  facet normal 0 1 0
    outer loop
      vertex 3.25 0.799999 2.2
      vertex 6.25 0.799999 1.2
      vertex 3.25 0.799999 1.2
    endloop
  endfacet
  facet normal 0 1 -0
    outer loop
      vertex 3.25 0.799999 1.2
      vertex 0.799999 0.799999 2.2
      vertex 3.25 0.799999 2.2
    endloop
  endfacet
  facet normal 0 1 0
    outer loop
      vertex 0.799999 0.799999 2.2
      vertex 3.25 0.799999 1.2
      vertex 0.799999 0.799999 1.2
    endloop
  endfacet
  facet normal 0 1 -0
    outer loop
      vertex 9.5 0.799999 1.2
      vertex 6.25 0.799999 2.2
      vertex 9.5 0.799999 2.2
    endloop
  endfacet
  facet normal 0 1 0
    outer loop
      vertex 6.25 0.799999 2.2
      vertex 9.5 0.799999 1.2
      vertex 6.25 0.799999 1.2
    endloop
  endfacet
  facet normal -1 0 0
    outer loop
      vertex -5 0 0
      vertex -5 0.799999 7.2
      vertex -5 0.799999 0
    endloop
  endfacet
  facet normal -1 -0 0
    outer loop
      vertex -5 0.799999 7.2
      vertex -5 0 0
      vertex -5 0 7.2
    endloop
  endfacet
  facet normal 0 1 0
    outer loop
      vertex 0 0.799999 2.2
      vertex 0 0.799999 0
      vertex -2.8 0.799999 2.2
    endloop
  endfacet
  facet normal 0 1 -0
    outer loop
      vertex -2.8 0.799999 2.2
      vertex -5 0.799999 7.2
      vertex -2.8 0.799999 7.2
    endloop
  endfacet
  facet normal 0 1 0
    outer loop
      vertex -2.8 0.799999 2.2
      vertex -5 0.799999 0
      vertex -5 0.799999 7.2
    endloop
  endfacet
  facet normal 0 1 0
    outer loop
      vertex -5 0.799999 0
      vertex -2.8 0.799999 2.2
      vertex 0 0.799999 0
    endloop
  endfacet
  facet normal -0 0 1
    outer loop
      vertex -5 0.799999 7.2
      vertex -2.8 0 7.2
      vertex -2.8 0.799999 7.2
    endloop
  endfacet
  facet normal 0 0 1
    outer loop
      vertex -2.8 0 7.2
      vertex -5 0.799999 7.2
      vertex -5 0 7.2
    endloop
  endfacet
  facet normal 1 -0 0
    outer loop
      vertex -2.8 0 7.2
      vertex -2.8 0.799999 2.2
      vertex -2.8 0.799999 7.2
    endloop
  endfacet
  facet normal 1 0 0
    outer loop
      vertex -2.8 0.799999 2.2
      vertex -2.8 0 7.2
      vertex -2.8 0 2.2
    endloop
  endfacet
  facet normal -1 0 0
    outer loop
      vertex 10.3 0 0
      vertex 10.3 0.799999 2.2
      vertex 10.3 0.799999 0
    endloop
  endfacet
  facet normal -1 -0 0
    outer loop
      vertex 10.3 0.799999 2.2
      vertex 10.3 0 0
      vertex 10.3 0 2.2
    endloop
  endfacet
  facet normal -0 0 1
    outer loop
      vertex 10.3 0.799999 2.2
      vertex 13.1 0 2.2
      vertex 13.1 0.799999 2.2
    endloop
  endfacet
  facet normal 0 0 1
    outer loop
      vertex 13.1 0 2.2
      vertex 10.3 0.799999 2.2
      vertex 10.3 0 2.2
    endloop
  endfacet
  facet normal 1 -0 0
    outer loop
      vertex 15.3 0 7.2
      vertex 15.3 0.799999 0
      vertex 15.3 0.799999 7.2
    endloop
  endfacet
  facet normal 1 0 0
    outer loop
      vertex 15.3 0.799999 0
      vertex 15.3 0 7.2
      vertex 15.3 0 0
    endloop
  endfacet
  facet normal 0 1 0
    outer loop
      vertex 15.3 0.799999 7.2
      vertex 13.1 0.799999 2.2
      vertex 13.1 0.799999 7.2
    endloop
  endfacet
  facet normal 0 1 -0
    outer loop
      vertex 15.3 0.799999 0
      vertex 13.1 0.799999 2.2
      vertex 15.3 0.799999 7.2
    endloop
  endfacet
  facet normal 0 1 0
    outer loop
      vertex 10.3 0.799999 0
      vertex 13.1 0.799999 2.2
      vertex 15.3 0.799999 0
    endloop
  endfacet
  facet normal 0 1 0
    outer loop
      vertex 13.1 0.799999 2.2
      vertex 10.3 0.799999 0
      vertex 10.3 0.799999 2.2
    endloop
  endfacet
  facet normal 0 0 -1
    outer loop
      vertex 10.3 0 0
      vertex 15.3 0.799999 0
      vertex 15.3 0 0
    endloop
  endfacet
  facet normal -0 0 -1
    outer loop
      vertex 15.3 0.799999 0
      vertex 10.3 0 0
      vertex 10.3 0.799999 0
    endloop
  endfacet
  facet normal 0 -1 0
    outer loop
      vertex 10.3 0 2.2
      vertex 10.3 0 0
      vertex 13.1 0 2.2
    endloop
  endfacet
  facet normal 0 -1 0
    outer loop
      vertex 13.1 0 2.2
      vertex 15.3 0 7.2
      vertex 13.1 0 7.2
    endloop
  endfacet
  facet normal 0 -1 0
    outer loop
      vertex 13.1 0 2.2
      vertex 15.3 0 0
      vertex 15.3 0 7.2
    endloop
  endfacet
  facet normal 0 -1 0
    outer loop
      vertex 15.3 0 0
      vertex 13.1 0 2.2
      vertex 10.3 0 0
    endloop
  endfacet
  facet normal -1 0 0
    outer loop
      vertex 13.1 0 2.2
      vertex 13.1 0.799999 7.2
      vertex 13.1 0.799999 2.2
    endloop
  endfacet
  facet normal -1 -0 0
    outer loop
      vertex 13.1 0.799999 7.2
      vertex 13.1 0 2.2
      vertex 13.1 0 7.2
    endloop
  endfacet
  facet normal -0 0 1
    outer loop
      vertex 13.1 0.799999 7.2
      vertex 15.3 0 7.2
      vertex 15.3 0.799999 7.2
    endloop
  endfacet
  facet normal 0 0 1
    outer loop
      vertex 15.3 0 7.2
      vertex 13.1 0.799999 7.2
      vertex 13.1 0 7.2
    endloop
  endfacet
  facet normal 0 0 -1
    outer loop
      vertex 0.799999 6 3.7
      vertex 1.3 9 3.7
      vertex 1.3 6 3.7
    endloop
  endfacet
  facet normal -0 0 -1
    outer loop
      vertex 1.3 9 3.7
      vertex 0.799999 6 3.7
      vertex 0.799999 9 3.7
    endloop
  endfacet
  facet normal 1 -0 0
    outer loop
      vertex 0.799999 6 3.7
      vertex 0.799999 9 2.2
      vertex 0.799999 9 3.7
    endloop
  endfacet
  facet normal 1 0 0
    outer loop
      vertex 0.799999 9 2.2
      vertex 0.799999 6 3.7
      vertex 0.799999 6 2.2
    endloop
  endfacet
  facet normal 0 1 0
    outer loop
      vertex 0.799999 9 3.7
      vertex 1.3 9 4.7
      vertex 1.3 9 3.7
    endloop
  endfacet
  facet normal 0 1 0
    outer loop
      vertex 1.3 9 4.7
      vertex 0.799999 9 3.7
      vertex 0 9 4.7
    endloop
  endfacet
  facet normal 0 1 0
    outer loop
      vertex 0 9 2.2
      vertex 0.799999 9 3.7
      vertex 0.799999 9 2.2
    endloop
  endfacet
  facet normal 0 1 0
    outer loop
      vertex 0.799999 9 3.7
      vertex 0 9 2.2
      vertex 0 9 4.7
    endloop
  endfacet
  facet normal 0 -1 0
    outer loop
      vertex 0 6 4.7
      vertex 0.799999 6 3.7
      vertex 1.3 6 4.7
    endloop
  endfacet
  facet normal 0 -1 0
    outer loop
      vertex 0 6 2.2
      vertex 0.799999 6 3.7
      vertex 0 6 4.7
    endloop
  endfacet
  facet normal 0 -1 -0
    outer loop
      vertex 0.799999 6 3.7
      vertex 0 6 2.2
      vertex 0.799999 6 2.2
    endloop
  endfacet
  facet normal 0 -1 -0
    outer loop
      vertex 1.3 6 4.7
      vertex 0.799999 6 3.7
      vertex 1.3 6 3.7
    endloop
  endfacet
  facet normal -0 0 1
    outer loop
      vertex 0 9 4.7
      vertex 1.3 6 4.7
      vertex 1.3 9 4.7
    endloop
  endfacet
  facet normal 0 0 1
    outer loop
      vertex 1.3 6 4.7
      vertex 0 9 4.7
      vertex 0 6 4.7
    endloop
  endfacet
  facet normal 1 -0 0
    outer loop
      vertex 1.3 6 4.7
      vertex 1.3 9 3.7
      vertex 1.3 9 4.7
    endloop
  endfacet
  facet normal 1 0 0
    outer loop
      vertex 1.3 9 3.7
      vertex 1.3 6 4.7
      vertex 1.3 6 3.7
    endloop
  endfacet
  facet normal -1 0 0
    outer loop
      vertex 9.5 6 2.2
      vertex 9.5 9 3.7
      vertex 9.5 9 2.2
    endloop
  endfacet
  facet normal -1 -0 0
    outer loop
      vertex 9.5 9 3.7
      vertex 9.5 6 2.2
      vertex 9.5 6 3.7
    endloop
  endfacet
  facet normal 0 0 -1
    outer loop
      vertex 9 6 3.7
      vertex 9.5 9 3.7
      vertex 9.5 6 3.7
    endloop
  endfacet
  facet normal -0 0 -1
    outer loop
      vertex 9.5 9 3.7
      vertex 9 6 3.7
      vertex 9 9 3.7
    endloop
  endfacet
  facet normal 0 -1 0
    outer loop
      vertex 9.5 6 3.7
      vertex 9 6 4.7
      vertex 9 6 3.7
    endloop
  endfacet
  facet normal 0 -1 0
    outer loop
      vertex 9 6 4.7
      vertex 9.5 6 3.7
      vertex 10.3 6 4.7
    endloop
  endfacet
  facet normal 0 -1 0
    outer loop
      vertex 10.3 6 2.2
      vertex 9.5 6 3.7
      vertex 9.5 6 2.2
    endloop
  endfacet
  facet normal 0 -1 0
    outer loop
      vertex 9.5 6 3.7
      vertex 10.3 6 2.2
      vertex 10.3 6 4.7
    endloop
  endfacet
  facet normal 0 1 0
    outer loop
      vertex 10.3 9 4.7
      vertex 9.5 9 3.7
      vertex 9 9 4.7
    endloop
  endfacet
  facet normal 0 1 -0
    outer loop
      vertex 10.3 9 2.2
      vertex 9.5 9 3.7
      vertex 10.3 9 4.7
    endloop
  endfacet
  facet normal 0 1 0
    outer loop
      vertex 9.5 9 3.7
      vertex 10.3 9 2.2
      vertex 9.5 9 2.2
    endloop
  endfacet
  facet normal 0 1 0
    outer loop
      vertex 9 9 4.7
      vertex 9.5 9 3.7
      vertex 9 9 3.7
    endloop
  endfacet
  facet normal -1 0 0
    outer loop
      vertex 9 6 3.7
      vertex 9 9 4.7
      vertex 9 9 3.7
    endloop
  endfacet
  facet normal -1 -0 0
    outer loop
      vertex 9 9 4.7
      vertex 9 6 3.7
      vertex 9 6 4.7
    endloop
  endfacet
  facet normal -0 0 1
    outer loop
      vertex 9 9 4.7
      vertex 10.3 6 4.7
      vertex 10.3 9 4.7
    endloop
  endfacet
  facet normal 0 0 1
    outer loop
      vertex 10.3 6 4.7
      vertex 9 9 4.7
      vertex 9 6 4.7
    endloop
  endfacet
  facet normal -1 0 0
    outer loop
      vertex 3.25 0 2.2
      vertex 3.25 0.799999 6
      vertex 3.25 0.799999 2.2
    endloop
  endfacet
  facet normal -1 -0 0
    outer loop
      vertex 3.25 0.799999 6
      vertex 3.25 0 2.2
      vertex 3.25 0 6
    endloop
  endfacet
  facet normal -0 0 1
    outer loop
      vertex 3.25 0.799999 6
      vertex 6.25 0 6
      vertex 6.25 0.799999 6
    endloop
  endfacet
  facet normal 0 0 1
    outer loop
      vertex 6.25 0 6
      vertex 3.25 0.799999 6
      vertex 3.25 0 6
    endloop
  endfacet
  facet normal 1 -0 0
    outer loop
      vertex 6.25 0 6
      vertex 6.25 0.799999 2.2
      vertex 6.25 0.799999 6
    endloop
  endfacet
  facet normal 1 0 0
    outer loop
      vertex 6.25 0.799999 2.2
      vertex 6.25 0 6
      vertex 6.25 0 2.2
    endloop
  endfacet
  facet normal -1 0 0
    outer loop
      vertex -3 10 0
      vertex -3 13 4
      vertex -3 13 0
    endloop
  endfacet
  facet normal -1 -0 0
    outer loop
      vertex -3 13 4
      vertex -3 10 0
      vertex -3 10 4
    endloop
  endfacet
  facet normal -0 0 1
    outer loop
      vertex -3 13 4
      vertex 0 10 4
      vertex 0 13 4
    endloop
  endfacet
  facet normal 0 0 1
    outer loop
      vertex 0 10 4
      vertex -3 13 4
      vertex -3 10 4
    endloop
  endfacet
  facet normal 0 1 -0
    outer loop
      vertex 0 13 0
      vertex -3 13 4
      vertex 0 13 4
    endloop
  endfacet
  facet normal 0 1 0
    outer loop
      vertex -3 13 4
      vertex 0 13 0
      vertex -3 13 0
    endloop
  endfacet
  facet normal 0 -1 0
    outer loop
      vertex -3 10 4
      vertex 0 10 2.2
      vertex 0 10 4
    endloop
  endfacet
  facet normal 0 -1 0
    outer loop
      vertex -3 10 0
      vertex 0 10 2.2
      vertex -3 10 4
    endloop
  endfacet
  facet normal 0 -1 -0
    outer loop
      vertex 0 10 2.2
      vertex -3 10 0
      vertex 0 10 0
    endloop
  endfacet
endsolid OpenSCAD_Model
