solid OpenSCAD_Model
  facet normal -1 0 0
    outer loop
      vertex 0 0 0
      vertex 0 4.5 2.2
      vertex 0 4.5 0
    endloop
  endfacet
  facet normal -1 -0 0
    outer loop
      vertex 0 4.5 2.2
      vertex 0 0 0
      vertex 0 0 2.2
    endloop
  endfacet
  facet normal -0 0 1
    outer loop
      vertex 0 4.5 2.2
      vertex 3.5 0 2.2
      vertex 3.5 4.5 2.2
    endloop
  endfacet
  facet normal 0 0 1
    outer loop
      vertex 3.5 0 2.2
      vertex 0 4.5 2.2
      vertex 0 0 2.2
    endloop
  endfacet
  facet normal 1 0 0
    outer loop
      vertex 3.5 4.5 2.2
      vertex 3.5 1 1.5
      vertex 3.5 4.5 1.5
    endloop
  endfacet
  facet normal 1 -0 0
    outer loop
      vertex 3.5 0 2.2
      vertex 3.5 1 1.5
      vertex 3.5 4.5 2.2
    endloop
  endfacet
  facet normal 1 0 0
    outer loop
      vertex 3.5 1 1.5
      vertex 3.5 0 2.2
      vertex 3.5 0 1.5
    endloop
  endfacet
  facet normal 1 -0 0
    outer loop
      vertex 3.5 4.5 1.5
      vertex 3.5 10 0
      vertex 3.5 10 1.5
    endloop
  endfacet
  facet normal 1 0 0
    outer loop
      vertex 3.5 1 0
      vertex 3.5 4.5 1.5
      vertex 3.5 1 1.5
    endloop
  endfacet
  facet normal 1 0 0
    outer loop
      vertex 3.5 4.5 1.5
      vertex 3.5 1 0
      vertex 3.5 10 0
    endloop
  endfacet
  facet normal 0 1 0
    outer loop
      vertex 2.5 4.5 1.5
      vertex 3.5 4.5 2.2
      vertex 3.5 4.5 1.5
    endloop
  endfacet
  facet normal 0 1 0
    outer loop
      vertex 3.5 4.5 2.2
      vertex 2.5 4.5 1.5
      vertex 0 4.5 2.2
    endloop
  endfacet
  facet normal 0 1 0
    outer loop
      vertex 0 4.5 0
      vertex 2.5 4.5 1.5
      vertex 2.5 4.5 0
    endloop
  endfacet
  facet normal 0 1 0
    outer loop
      vertex 2.5 4.5 1.5
      vertex 0 4.5 0
      vertex 0 4.5 2.2
    endloop
  endfacet
  facet normal 0 0 -1
    outer loop
      vertex 10.5 0 0
      vertex 3.5 1 0
      vertex 10.5 1 0
    endloop
  endfacet
  facet normal 0 0 -1
    outer loop
      vertex 3.5 1 0
      vertex 2.5 4.5 0
      vertex 3.5 10 0
    endloop
  endfacet
  facet normal 0 0 -1
    outer loop
      vertex 0 0 0
      vertex 3.5 1 0
      vertex 10.5 0 0
    endloop
  endfacet
  facet normal 0 0 -1
    outer loop
      vertex 0 0 0
      vertex 2.5 4.5 0
      vertex 3.5 1 0
    endloop
  endfacet
  facet normal -0 0 -1
    outer loop
      vertex 2.5 4.5 0
      vertex 0 0 0
      vertex 0 4.5 0
    endloop
  endfacet
  facet normal -0 0 -1
    outer loop
      vertex 3.5 10 0
      vertex 2.5 4.5 0
      vertex 2.5 10 0
    endloop
  endfacet
  facet normal 0 -1 0
    outer loop
      vertex 0 0 2.2
      vertex 3.5 0 1.5
      vertex 3.5 0 2.2
    endloop
  endfacet
  facet normal 0 -1 0
    outer loop
      vertex 0 0 0
      vertex 3.5 0 1.5
      vertex 0 0 2.2
    endloop
  endfacet
  facet normal 0 -1 0
    outer loop
      vertex 10.5 0 0
      vertex 3.5 0 1.5
      vertex 0 0 0
    endloop
  endfacet
  facet normal 0 -1 0
    outer loop
      vertex 3.5 0 1.5
      vertex 10.5 0 0
      vertex 10.5 0 1.5
    endloop
  endfacet
  facet normal -0 0 1
    outer loop
      vertex 3.5 1 1.5
      vertex 10.5 0 1.5
      vertex 10.5 1 1.5
    endloop
  endfacet
  facet normal 0 0 1
    outer loop
      vertex 10.5 0 1.5
      vertex 3.5 1 1.5
      vertex 3.5 0 1.5
    endloop
  endfacet
  facet normal 1 -0 0
    outer loop
      vertex 10.5 0 1.5
      vertex 10.5 1 0
      vertex 10.5 1 1.5
    endloop
  endfacet
  facet normal 1 0 0
    outer loop
      vertex 10.5 1 0
      vertex 10.5 0 1.5
      vertex 10.5 0 0
    endloop
  endfacet
  facet normal 0 1 -0
    outer loop
      vertex 10.5 1 0
      vertex 3.5 1 1.5
      vertex 10.5 1 1.5
    endloop
  endfacet
  facet normal 0 1 0
    outer loop
      vertex 3.5 1 1.5
      vertex 10.5 1 0
      vertex 3.5 1 0
    endloop
  endfacet
  facet normal -1 0 0
    outer loop
      vertex 2.5 4.5 0
      vertex 2.5 10 1.5
      vertex 2.5 10 0
    endloop
  endfacet
  facet normal -1 -0 0
    outer loop
      vertex 2.5 10 1.5
      vertex 2.5 4.5 0
      vertex 2.5 4.5 1.5
    endloop
  endfacet
  facet normal -0 0 1
    outer loop
      vertex 2.5 10 1.5
      vertex 3.5 4.5 1.5
      vertex 3.5 10 1.5
    endloop
  endfacet
  facet normal 0 0 1
    outer loop
      vertex 3.5 4.5 1.5
      vertex 2.5 10 1.5
      vertex 2.5 4.5 1.5
    endloop
  endfacet
  facet normal 0 1 -0
    outer loop
      vertex 3.5 10 0
      vertex 2.5 10 1.5
      vertex 3.5 10 1.5
    endloop
  endfacet
  facet normal 0 1 0
    outer loop
      vertex 2.5 10 1.5
      vertex 3.5 10 0
      vertex 2.5 10 0
    endloop
  endfacet
endsolid OpenSCAD_Model
